ffmpeg version 7.1.1 Copyright (c) 2000-2025 the FFmpeg developers
  built with Apple clang version 16.0.0 (clang-1600.0.26.6)
  configuration: --prefix=/opt/homebrew/Cellar/ffmpeg/7.1.1_2 --enable-shared --enable-pthreads --enable-version3 --cc=clang --host-cflags= --host-ldflags='-Wl,-ld_classic' --enable-ffplay --enable-gnutls --enable-gpl --enable-libaom --enable-libaribb24 --enable-libbluray --enable-libdav1d --enable-libharfbuzz --enable-libjxl --enable-libmp3lame --enable-libopus --enable-librav1e --enable-librist --enable-librubberband --enable-libsnappy --enable-libsrt --enable-libssh --enable-libsvtav1 --enable-libtesseract --enable-libtheora --enable-libvidstab --enable-libvmaf --enable-libvorbis --enable-libvpx --enable-libwebp --enable-libx264 --enable-libx265 --enable-libxml2 --enable-libxvid --enable-lzma --enable-libfontconfig --enable-libfreetype --enable-frei0r --enable-libass --enable-libopencore-amrnb --enable-libopencore-amrwb --enable-libopenjpeg --enable-libspeex --enable-libsoxr --enable-libzmq --enable-libzimg --disable-libjack --disable-indev=jack --enable-videotoolbox --enable-audiotoolbox --enable-neon
  libavutil      59. 39.100 / 59. 39.100
  libavcodec     61. 19.101 / 61. 19.101
  libavformat    61.  7.100 / 61.  7.100
  libavdevice    61.  3.100 / 61.  3.100
  libavfilter    10.  4.100 / 10.  4.100
  libswscale      8.  3.100 /  8.  3.100
  libswresample   5.  3.100 /  5.  3.100
  libpostproc    58.  3.100 / 58.  3.100
Input #0, mov,mp4,m4a,3gp,3g2,mj2, from 'public/video.mp4':
  Metadata:
    major_brand     : isom
    minor_version   : 512
    compatible_brands: isomiso2avc1mp41
    creation_time   : 2025-09-07T13:30:30.000000Z
    encoder         : Lavf58.12.100
  Duration: 00:02:02.12, start: 0.000000, bitrate: 1951 kb/s
  Stream #0:0[0x1](eng): Video: h264 (Main) (avc1 / 0x31637661), yuv420p(tv, bt709/reserved/reserved, progressive), 1920x1080 [SAR 1:1 DAR 16:9], 1690 kb/s, 25.01 fps, 25 tbr, 12800 tbn (default)
      Metadata:
        creation_time   : 2025-09-07T13:30:30.000000Z
        handler_name    : VideoHandler
        vendor_id       : [0][0][0][0]
  Stream #0:1[0x2](eng): Audio: aac (LC) (mp4a / 0x6134706D), 48000 Hz, stereo, fltp, 256 kb/s (default)
      Metadata:
        creation_time   : 2025-09-07T13:30:30.000000Z
        handler_name    : SoundHandler
        vendor_id       : [0][0][0][0]
[out#0/webm @ 0x15b0118a0] Codec AVOption b:a (set bitrate (in bits/s)) has not been used for any stream. The most likely reason is either wrong type (e.g. a video option with no video streams) or that it is a private option of some decoder which was not actually used for any stream.
Stream mapping:
  Stream #0:0 -> #0:0 (h264 (native) -> vp9 (libvpx-vp9))
Press [q] to stop, [?] for help
[libvpx-vp9 @ 0x15b0149e0] v1.15.1
Output #0, webm, to 'public/video_optimized.webm':
  Metadata:
    major_brand     : isom
    minor_version   : 512
    compatible_brands: isomiso2avc1mp41
    encoder         : Lavf61.7.100
  Stream #0:0(eng): Video: vp9, yuv420p(tv, bt709/reserved/reserved, progressive), 1920x1080 [SAR 1:1 DAR 16:9], q=2-31, 1000 kb/s, 25 fps, 1k tbn (default)
      Metadata:
        creation_time   : 2025-09-07T13:30:30.000000Z
        handler_name    : VideoHandler
        vendor_id       : [0][0][0][0]
        encoder         : Lavc61.19.101 libvpx-vp9
      Side data:
        cpb: bitrate max/min/avg: 0/0/0 buffer size: 0 vbv_delay: N/A
frame=   26 fps=0.0 q=41.0 size=       1KiB time=00:00:01.04 bitrate=   5.0kbits/s speed=2.06x    frame=   55 fps= 55 q=57.0 size=       1KiB time=00:00:02.20 bitrate=   2.3kbits/s speed=2.18x    frame=   84 fps= 56 q=48.0 size=       1KiB time=00:00:03.36 bitrate=   1.5kbits/s speed=2.22x    frame=  113 fps= 56 q=60.0 size=       1KiB time=00:00:04.52 bitrate=   1.1kbits/s speed=2.24x    frame=  142 fps= 56 q=49.0 size=     512KiB time=00:00:05.68 bitrate= 738.4kbits/s speed=2.25x    frame=  170 fps= 56 q=55.0 size=     512KiB time=00:00:06.80 bitrate= 616.8kbits/s speed=2.25x    frame=  200 fps= 57 q=32.0 size=     512KiB time=00:00:08.00 bitrate= 524.3kbits/s speed=2.27x    frame=  223 fps= 55 q=30.0 size=     512KiB time=00:00:08.92 bitrate= 470.2kbits/s speed=2.21x    frame=  245 fps= 54 q=30.0 size=     512KiB time=00:00:09.80 bitrate= 428.0kbits/s speed=2.16x    frame=  265 fps= 53 q=32.0 size=    1024KiB time=00:00:10.60 bitrate= 791.4kbits/s speed= 2.1x    frame=  284 fps= 51 q=30.0 size=    1024KiB time=00:00:11.36 bitrate= 738.4kbits/s speed=2.05x    frame=  301 fps= 50 q=30.0 size=    1024KiB time=00:00:12.04 bitrate= 696.7kbits/s speed=1.99x    frame=  325 fps= 50 q=50.0 size=    1024KiB time=00:00:13.00 bitrate= 645.3kbits/s speed=1.98x    frame=  352 fps= 50 q=47.0 size=    1024KiB time=00:00:14.08 bitrate= 595.8kbits/s speed=   2x    frame=  373 fps= 49 q=43.0 size=    1024KiB time=00:00:14.92 bitrate= 562.2kbits/s speed=1.97x    frame=  396 fps= 49 q=61.0 size=    2048KiB time=00:00:15.84 bitrate=1059.2kbits/s speed=1.97x    frame=  417 fps= 49 q=55.0 size=    2048KiB time=00:00:16.68 bitrate=1005.8kbits/s speed=1.95x    frame=  440 fps= 49 q=53.0 size=    2048KiB time=00:00:17.60 bitrate= 953.3kbits/s speed=1.94x    frame=  481 fps= 50 q=19.0 size=    2048KiB time=00:00:19.24 bitrate= 872.0kbits/s speed=2.01x    frame=  506 fps= 50 q=58.0 size=    2048KiB time=00:00:20.24 bitrate= 828.9kbits/s speed=2.01x    frame=  530 fps= 50 q=57.0 size=    2560KiB time=00:00:21.20 bitrate= 989.2kbits/s speed=   2x    frame=  554 fps= 50 q=54.0 size=    2560KiB time=00:00:22.16 bitrate= 946.4kbits/s speed=   2x    frame=  583 fps= 50 q=39.0 size=    2560KiB time=00:00:23.32 bitrate= 899.3kbits/s speed=2.01x    frame=  608 fps= 50 q=55.0 size=    2560KiB time=00:00:24.32 bitrate= 862.3kbits/s speed=2.01x    frame=  628 fps= 50 q=37.0 size=    2560KiB time=00:00:25.12 bitrate= 834.9kbits/s speed=1.99x    frame=  658 fps= 50 q=54.0 size=    3072KiB time=00:00:26.32 bitrate= 956.1kbits/s speed=2.01x    frame=  680 fps= 50 q=59.0 size=    3072KiB time=00:00:27.20 bitrate= 925.2kbits/s speed=   2x    frame=  700 fps= 50 q=53.0 size=    3072KiB time=00:00:28.00 bitrate= 898.8kbits/s speed=1.98x    frame=  720 fps= 49 q=50.0 size=    3072KiB time=00:00:28.80 bitrate= 873.8kbits/s speed=1.97x    frame=  742 fps= 49 q=47.0 size=    3072KiB time=00:00:29.68 bitrate= 847.9kbits/s speed=1.96x    frame=  762 fps= 49 q=58.0 size=    3072KiB time=00:00:30.48 bitrate= 825.7kbits/s speed=1.95x    frame=  780 fps= 48 q=59.0 size=    3840KiB time=00:00:31.20 bitrate=1008.2kbits/s speed=1.93x    frame=  805 fps= 48 q=41.0 size=    3840KiB time=00:00:32.20 bitrate= 976.9kbits/s speed=1.94x    frame=  837 fps= 49 q=37.0 size=    3840KiB time=00:00:33.48 bitrate= 939.6kbits/s speed=1.95x    frame=  858 fps= 49 q=55.0 size=    3840KiB time=00:00:34.32 bitrate= 916.6kbits/s speed=1.95x    frame=  882 fps= 49 q=49.0 size=    3840KiB time=00:00:35.28 bitrate= 891.6kbits/s speed=1.94x    frame=  905 fps= 49 q=40.0 size=    4608KiB time=00:00:36.20 bitrate=1042.8kbits/s speed=1.94x    frame=  934 fps= 49 q=30.0 size=    4608KiB time=00:00:37.36 bitrate=1010.4kbits/s speed=1.95x    frame=  963 fps= 49 q=34.0 size=    4608KiB time=00:00:38.52 bitrate= 980.0kbits/s speed=1.96x    frame=  992 fps= 49 q=40.0 size=    4608KiB time=00:00:39.68 bitrate= 951.3kbits/s speed=1.97x    frame= 1038 fps= 50 q=38.0 size=    5120KiB time=00:00:41.52 bitrate=1010.2kbits/s speed=2.01x    frame= 1078 fps= 51 q=48.0 size=    5120KiB time=00:00:43.12 bitrate= 972.7kbits/s speed=2.04x    frame= 1103 fps= 51 q=52.0 size=    5120KiB time=00:00:44.12 bitrate= 950.7kbits/s speed=2.04x    frame= 1126 fps= 51 q=51.0 size=    5120KiB time=00:00:45.04 bitrate= 931.2kbits/s speed=2.03x    frame= 1150 fps= 51 q=30.0 size=    5120KiB time=00:00:46.00 bitrate= 911.8kbits/s speed=2.03x    frame= 1174 fps= 51 q=30.0 size=    5888KiB time=00:00:46.96 bitrate=1027.1kbits/s speed=2.03x    frame= 1203 fps= 51 q=18.0 size=    5888KiB time=00:00:48.12 bitrate=1002.4kbits/s speed=2.03x    frame= 1230 fps= 51 q=30.0 size=    5888KiB time=00:00:49.20 bitrate= 980.4kbits/s speed=2.03x    frame= 1262 fps= 51 q=41.0 size=    5888KiB time=00:00:50.48 bitrate= 955.5kbits/s speed=2.04x    frame= 1292 fps= 51 q=41.0 size=    6400KiB time=00:00:51.68 bitrate=1014.5kbits/s speed=2.05x    frame= 1313 fps= 51 q=40.0 size=    6400KiB time=00:00:52.52 bitrate= 998.3kbits/s speed=2.04x    frame= 1336 fps= 51 q=39.0 size=    6400KiB time=00:00:53.44 bitrate= 981.1kbits/s speed=2.04x    frame= 1361 fps= 51 q=49.0 size=    6400KiB time=00:00:54.44 bitrate= 963.1kbits/s speed=2.04x    frame= 1395 fps= 51 q=33.0 size=    6400KiB time=00:00:55.80 bitrate= 939.6kbits/s speed=2.05x    frame= 1429 fps= 52 q=16.0 size=    6912KiB time=00:00:57.16 bitrate= 990.6kbits/s speed=2.06x    frame= 1460 fps= 52 q=39.0 size=    6912KiB time=00:00:58.40 bitrate= 969.6kbits/s speed=2.07x    frame= 1496 fps= 52 q=30.0 size=    6912KiB time=00:00:59.84 bitrate= 946.2kbits/s speed=2.08x    frame= 1537 fps= 53 q=15.0 size=    7680KiB time=00:01:01.48 bitrate=1023.3kbits/s speed= 2.1x    frame= 1568 fps= 53 q=38.0 size=    7680KiB time=00:01:02.72 bitrate=1003.1kbits/s speed=2.11x    frame= 1596 fps= 53 q=36.0 size=    7680KiB time=00:01:03.84 bitrate= 985.5kbits/s speed=2.11x    frame= 1624 fps= 53 q=45.0 size=    7680KiB time=00:01:04.96 bitrate= 968.5kbits/s speed=2.11x    frame= 1654 fps= 53 q=30.0 size=    7680KiB time=00:01:06.16 bitrate= 950.9kbits/s speed=2.12x    frame= 1674 fps= 53 q=46.0 size=    8448KiB time=00:01:06.96 bitrate=1033.5kbits/s speed=2.11x    frame= 1696 fps= 53 q=44.0 size=    8448KiB time=00:01:07.84 bitrate=1020.1kbits/s speed= 2.1x    frame= 1720 fps= 52 q=47.0 size=    8448KiB time=00:01:08.80 bitrate=1005.9kbits/s speed= 2.1x    frame= 1746 fps= 52 q=46.0 size=    8448KiB time=00:01:09.84 bitrate= 990.9kbits/s speed= 2.1x    frame= 1772 fps= 52 q=40.0 size=    8448KiB time=00:01:10.88 bitrate= 976.4kbits/s speed= 2.1x    frame= 1798 fps= 52 q=48.0 size=    8960KiB time=00:01:11.92 bitrate=1020.6kbits/s speed= 2.1x    frame= 1825 fps= 52 q=53.0 size=    8960KiB time=00:01:13.00 bitrate=1005.5kbits/s speed= 2.1x    frame= 1858 fps= 53 q=50.0 size=    8960KiB time=00:01:14.32 bitrate= 987.6kbits/s speed=2.11x    frame= 1891 fps= 53 q=30.0 size=    8960KiB time=00:01:15.64 bitrate= 970.4kbits/s speed=2.11x    frame= 1923 fps= 53 q=30.0 size=    9472KiB time=00:01:16.92 bitrate=1008.8kbits/s speed=2.12x    frame= 1956 fps= 53 q=30.0 size=    9472KiB time=00:01:18.24 bitrate= 991.8kbits/s speed=2.13x    frame= 1979 fps= 53 q=39.0 size=    9472KiB time=00:01:19.16 bitrate= 980.2kbits/s speed=2.12x    frame= 2000 fps= 53 q=33.0 size=    9472KiB time=00:01:20.00 bitrate= 969.9kbits/s speed=2.12x    frame= 2025 fps= 53 q=28.0 size=    9472KiB time=00:01:21.00 bitrate= 958.0kbits/s speed=2.11x    frame= 2044 fps= 53 q=63.0 size=    9472KiB time=00:01:21.76 bitrate= 949.1kbits/s speed=2.11x    frame= 2060 fps= 52 q=52.0 size=   10496KiB time=00:01:22.40 bitrate=1043.5kbits/s speed= 2.1x    frame= 2075 fps= 52 q=53.0 size=   10496KiB time=00:01:23.00 bitrate=1035.9kbits/s speed=2.08x    frame= 2097 fps= 52 q=45.0 size=   10496KiB time=00:01:23.88 bitrate=1025.1kbits/s speed=2.08x    frame= 2121 fps= 52 q=45.0 size=   10496KiB time=00:01:24.84 bitrate=1013.5kbits/s speed=2.08x    frame= 2144 fps= 52 q=48.0 size=   10496KiB time=00:01:25.76 bitrate=1002.6kbits/s speed=2.08x    frame= 2167 fps= 52 q=38.0 size=   10496KiB time=00:01:26.68 bitrate= 992.0kbits/s speed=2.07x    frame= 2187 fps= 52 q=27.0 size=   11264KiB time=00:01:27.48 bitrate=1054.8kbits/s speed=2.07x    frame= 2223 fps= 52 q=30.0 size=   11264KiB time=00:01:28.92 bitrate=1037.7kbits/s speed=2.08x    frame= 2244 fps= 52 q=51.0 size=   11264KiB time=00:01:29.76 bitrate=1028.0kbits/s speed=2.07x    frame= 2264 fps= 52 q=51.0 size=   11264KiB time=00:01:30.56 bitrate=1018.9kbits/s speed=2.07x    frame= 2280 fps= 51 q=55.0 size=   11264KiB time=00:01:31.20 bitrate=1011.8kbits/s speed=2.06x    frame= 2298 fps= 51 q=58.0 size=   11264KiB time=00:01:31.92 bitrate=1003.9kbits/s speed=2.05x    frame= 2316 fps= 51 q=50.0 size=   11776KiB time=00:01:32.64 bitrate=1041.3kbits/s speed=2.04x    frame= 2332 fps= 51 q=51.0 size=   11776KiB time=00:01:33.28 bitrate=1034.2kbits/s speed=2.03x    frame= 2351 fps= 51 q=51.0 size=   11776KiB time=00:01:34.04 bitrate=1025.8kbits/s speed=2.03x    frame= 2369 fps= 51 q=49.0 size=   11776KiB time=00:01:34.76 bitrate=1018.0kbits/s speed=2.02x    frame= 2389 fps= 50 q=49.0 size=   11776KiB time=00:01:35.56 bitrate=1009.5kbits/s speed=2.02x    frame= 2407 fps= 50 q=32.0 size=   11776KiB time=00:01:36.28 bitrate=1002.0kbits/s speed=2.01x    frame= 2422 fps= 50 q=63.0 size=   11776KiB time=00:01:36.88 bitrate= 995.8kbits/s speed=   2x    frame= 2452 fps= 50 q=44.0 size=   12544KiB time=00:01:38.08 bitrate=1047.7kbits/s speed=2.01x    frame= 2474 fps= 50 q=36.0 size=   12544KiB time=00:01:38.96 bitrate=1038.4kbits/s speed=   2x    frame= 2497 fps= 50 q=59.0 size=   12544KiB time=00:01:39.88 bitrate=1028.8kbits/s speed=   2x    frame= 2553 fps= 51 q=30.0 size=   12544KiB time=00:01:42.12 bitrate=1006.3kbits/s speed=2.03x    frame= 2588 fps= 51 q=41.0 size=   13056KiB time=00:01:43.52 bitrate=1033.2kbits/s speed=2.03x    frame= 2605 fps= 51 q=47.0 size=   13056KiB time=00:01:44.20 bitrate=1026.4kbits/s speed=2.03x    frame= 2625 fps= 51 q=42.0 size=   13056KiB time=00:01:45.00 bitrate=1018.6kbits/s speed=2.02x    frame= 2650 fps= 51 q=34.0 size=   13056KiB time=00:01:46.00 bitrate=1009.0kbits/s speed=2.02x    frame= 2675 fps= 51 q=39.0 size=   13056KiB time=00:01:47.00 bitrate= 999.6kbits/s speed=2.02x    frame= 2699 fps= 51 q=33.0 size=   13568KiB time=00:01:47.96 bitrate=1029.5kbits/s speed=2.02x    frame= 2718 fps= 50 q=60.0 size=   13568KiB time=00:01:48.72 bitrate=1022.3kbits/s speed=2.02x    frame= 2738 fps= 50 q=59.0 size=   13568KiB time=00:01:49.52 bitrate=1014.9kbits/s speed=2.01x    frame= 2759 fps= 50 q=56.0 size=   13568KiB time=00:01:50.36 bitrate=1007.1kbits/s speed=2.01x    frame= 2788 fps= 50 q=45.0 size=   13568KiB time=00:01:51.52 bitrate= 996.7kbits/s speed=2.01x    frame= 2826 fps= 51 q=31.0 size=   14336KiB time=00:01:53.04 bitrate=1038.9kbits/s speed=2.02x    frame= 2850 fps= 50 q=63.0 size=   14336KiB time=00:01:54.00 bitrate=1030.2kbits/s speed=2.02x    frame= 2860 fps= 50 q=63.0 size=   14336KiB time=00:01:54.40 bitrate=1026.6kbits/s speed=2.01x    frame= 2876 fps= 50 q=58.0 size=   14336KiB time=00:01:55.04 bitrate=1020.9kbits/s speed=   2x    frame= 2901 fps= 50 q=51.0 size=   14336KiB time=00:01:56.04 bitrate=1012.1kbits/s speed=   2x    frame= 2974 fps= 51 q=30.0 size=   15104KiB time=00:01:58.96 bitrate=1040.1kbits/s speed=2.04x    [out#0/webm @ 0x15b0118a0] video:15269KiB audio:0KiB subtitle:0KiB other streams:0KiB global headers:0KiB muxing overhead: 0.147791%
frame= 3053 fps= 52 q=30.0 Lsize=   15292KiB time=00:02:02.12 bitrate=1025.8kbits/s speed=2.08x    
